<?xml version="1.0" encoding="utf-8"?>
<!-- Generator: Adobe Illustrator 18.1.1, SVG Export Plug-In . SVG Version: 6.00 Build 0)  -->
<svg version="1.1" id="Layer_1" xmlns="http://www.w3.org/2000/svg" xmlns:xlink="http://www.w3.org/1999/xlink" x="0px" y="0px"
	 viewBox="0 0 20 20" enable-background="new 0 0 20 20" xml:space="preserve">
<g>
	<path fill="#00ACC8" d="M10,10l-8.2,2C0.7,7.5,3.4,2.9,8,1.8c0.7-0.2,1.5-0.3,2.2-0.2L10,10z"/>
	<path fill="#FFFFFF" d="M1,13.3l-0.2-1c-0.6-2.5-0.2-5,1.1-7.2c1.3-2.2,3.4-3.7,5.9-4.3C8.4,0.6,9.2,0.5,10,0.5l1.2,0L11,10.8
		L1,13.3z M9.1,2.6c-0.3,0-0.6,0.1-0.9,0.2C6.3,3.3,4.7,4.5,3.6,6.2c-0.8,1.4-1.2,3-1,4.6L9,9.2L9.1,2.6z"/>
	<path fill="#5DB87F" d="M10,10l7.5,3.7c-2.1,4.2-7.2,5.9-11.3,3.8c-2.3-1.2-3.8-3-4.4-5.5L10,10z"/>
	<path fill="#FFFFFF" d="M9.9,19.5c-1.5,0-2.9-0.3-4.2-1c-2.6-1.3-4.2-3.4-4.9-6.2l-0.2-1l9.6-2.3l8.7,4.4l-0.5,0.9
		C16.7,17.5,13.5,19.5,9.9,19.5z M3.1,12.8c0.6,1.7,1.8,3,3.5,3.8c1,0.5,2.1,0.8,3.3,0.8c2.5,0,4.7-1.2,6.1-3.2l-6.1-3.1L3.1,12.8z"
		/>
	<path fill="#F87500" d="M10,10l0.2-8.5c4.8,0.1,8.4,4,8.3,8.6c0,4-3.6,7-5,7.5L10,10z"/>
	<path fill="#FFFFFF" d="M12.9,19l-4-8.7l0.2-9.7l1,0c5.3,0.1,9.4,4.4,9.3,9.7c0,4.6-4,7.8-5.7,8.4L12.9,19z M11,9.8l2.9,6.4
		c1.4-1,3.5-3.2,3.5-6c0.1-3.8-2.6-7-6.3-7.5L11,9.8z"/>
</g>
</svg>
