<?xml version="1.0" encoding="utf-8"?>
<!-- Generator: Adobe Illustrator 18.1.1, SVG Export Plug-In . SVG Version: 6.00 Build 0)  -->
<svg version="1.1" id="Layer_1" xmlns="http://www.w3.org/2000/svg" xmlns:xlink="http://www.w3.org/1999/xlink" x="0px" y="0px"
	 viewBox="0 0 20 20" enable-background="new 0 0 20 20" xml:space="preserve">
<path fill="#00ACC8" d="M16.7,18.5H3.3c-1,0-1.8-0.8-1.8-1.8V3.3c0-1,0.8-1.8,1.8-1.8h13.4c1,0,1.8,0.8,1.8,1.8v13.4
	C18.5,17.7,17.7,18.5,16.7,18.5z"/>
<polygon fill="#73C697" points="2.9,11 7,11 9.5,8.9 12.6,12.4 17.6,5.7 18.2,17.4 14.6,18 2.6,19.1 1.5,13.9 2.2,10.9 "/>
<path fill="#FFFFFF" d="M12.9,14c-0.3,0-0.6-0.3-0.8-0.5l-2.3-2.9l-0.8,1C8.8,11.8,8.5,12,8.2,12H2.9c-0.6,0-1-0.4-1-1s0.5-1,1-1
	h4.7l1.2-1.8C9,7.9,9.3,7.7,9.6,7.7s0.6,0.1,0.8,0.4l2.4,2.9l4.5-6.1c0.3-0.5,1-0.6,1.4-0.2c0.5,0.3,0.6,1,0.2,1.4l-5.3,7.3
	C13.5,13.7,13.2,14,12.9,14L12.9,14z"/>
<path fill="#FFFFFF" d="M16.7,19.5H3.3c-1.6,0-2.8-1.3-2.8-2.8V3.3c0-1.6,1.3-2.8,2.8-2.8h13.3c1.6,0,2.8,1.3,2.8,2.8v13.3
	C19.5,18.2,18.2,19.5,16.7,19.5z M3.3,2.5c-0.4,0-0.8,0.4-0.8,0.9v13.3c0,0.4,0.3,0.8,0.8,0.8h13.3c0.4,0,0.8-0.3,0.8-0.8V3.3
	c0-0.4-0.3-0.8-0.8-0.8H3.3L3.3,2.5z"/>
</svg>
